<?xml version="1.0" standalone="no"?>
<!DOCTYPE svg PUBLIC "-//W3C//DTD SVG 20010904//EN"
 "http://www.w3.org/TR/2001/REC-SVG-20010904/DTD/svg10.dtd">
<svg version="1.0" xmlns="http://www.w3.org/2000/svg"
 width="900.000000pt" height="900.000000pt" viewBox="0 0 900.000000 900.000000"
 preserveAspectRatio="xMidYMid meet">
<metadata>
Created by potrace 1.11, written by Peter Selinger 2001-2013
</metadata>
<g transform="translate(0.000000,900.000000) scale(0.100000,-0.100000)"
fill="#000000" stroke="none">
<path d="M4468 8049 c-6 -4 -16 -5 -20 -3 -4 3 -8 -3 -8 -13 0 -13 -3 -14 -8
-5 -6 9 -12 5 -20 -13 -8 -17 -16 -23 -25 -18 -18 11 -37 12 -37 2 0 -6 -8 -9
-17 -7 -10 2 -17 -2 -16 -9 2 -7 -6 -10 -16 -8 -12 2 -18 -2 -17 -13 0 -9 -4
-17 -11 -17 -7 0 -19 -9 -28 -20 -9 -11 -13 -13 -9 -5 7 13 5 13 -8 2 -13 -10
-17 -10 -21 0 -4 11 -6 10 -6 0 -1 -7 -5 -10 -11 -7 -5 3 -10 1 -10 -5 0 -6
-5 -8 -12 -4 -6 4 -20 -4 -33 -20 -12 -15 -30 -29 -41 -31 -10 -2 -21 -4 -24
-4 -3 -1 2 -6 10 -11 12 -7 10 -9 -8 -7 -12 0 -22 6 -22 11 0 5 -6 2 -13 -9
-10 -13 -16 -15 -21 -6 -4 6 -12 9 -17 5 -5 -3 -7 -10 -4 -15 6 -8 -9 -13 -29
-10 -5 1 -6 -5 -3 -13 6 -16 -26 -50 -36 -39 -4 3 -14 -2 -22 -13 -10 -14 -14
-15 -15 -5 0 11 -4 10 -13 -4 -9 -11 -16 -14 -20 -7 -8 12 -47 4 -64 -14 -7
-6 -9 -15 -5 -18 3 -4 -1 -4 -10 -1 -10 4 -23 -3 -36 -19 -20 -27 -39 -36 -26
-13 6 9 5 9 -8 0 -8 -7 -18 -10 -21 -6 -4 3 -7 2 -7 -4 0 -6 -11 -9 -25 -8
-14 2 -23 0 -20 -5 3 -4 -2 -11 -11 -14 -8 -3 -13 -10 -9 -15 3 -5 0 -13 -6
-17 -8 -4 -9 -3 -5 4 4 7 3 12 -1 12 -5 0 -14 -9 -21 -20 -13 -22 -48 -29 -37
-7 4 6 0 4 -7 -5 -8 -9 -23 -16 -34 -15 -12 1 -18 -3 -16 -12 3 -12 1 -12 -14
0 -12 9 -15 10 -10 1 4 -7 1 -15 -10 -19 -10 -3 -25 -14 -35 -24 -10 -10 -29
-16 -43 -15 -14 2 -26 -1 -26 -6 0 -5 -5 -6 -11 -3 -6 4 -17 -2 -25 -13 -9
-14 -21 -19 -31 -15 -11 4 -14 3 -9 -5 4 -7 2 -12 -5 -12 -8 0 -9 -3 0 -13 9
-11 5 -13 -19 -12 -17 1 -30 -3 -30 -9 0 -6 -5 -4 -10 4 -6 9 -10 10 -10 3 0
-7 -10 -10 -26 -7 -18 3 -23 1 -18 -7 5 -9 2 -10 -9 -6 -12 4 -15 1 -12 -14 4
-18 2 -19 -12 -7 -12 9 -15 9 -9 1 7 -12 -5 -18 -27 -14 -5 1 -6 -3 -2 -9 3
-5 1 -10 -5 -10 -6 0 -9 -4 -6 -9 3 -4 -6 -6 -20 -3 -16 3 -30 -1 -35 -9 -7
-11 -9 -11 -9 -1 0 10 -3 10 -14 0 -8 -7 -11 -17 -8 -23 3 -5 -2 -4 -11 4 -15
12 -17 12 -10 -4 5 -14 3 -17 -10 -12 -9 3 -16 2 -14 -3 1 -5 -7 -16 -18 -25
-11 -9 -14 -13 -6 -9 9 5 12 3 7 -5 -4 -6 -11 -9 -16 -6 -5 3 -11 1 -14 -3 -3
-5 -16 -7 -29 -5 -17 4 -32 -3 -49 -22 -19 -20 -28 -24 -33 -15 -6 9 -4 11 5
5 9 -5 11 -4 6 4 -4 6 -12 9 -17 5 -5 -3 -7 -9 -4 -14 3 -4 -9 -13 -25 -19
-17 -5 -30 -15 -30 -22 0 -8 -3 -9 -13 0 -15 11 -38 -7 -50 -39 -4 -12 -6 -11
-6 3 -1 23 -22 22 -28 -3 -3 -11 -10 -20 -15 -20 -5 0 -6 6 -2 13 4 6 -4 0
-19 -15 -14 -16 -35 -28 -46 -28 -11 0 -26 -9 -34 -20 -14 -20 -15 -20 -22 -3
-6 16 -8 16 -16 -4 -4 -13 -15 -23 -23 -23 -8 0 -20 -8 -25 -17 -6 -11 -11
-13 -11 -5 0 7 -5 10 -10 7 -6 -4 -8 -10 -6 -14 3 -4 -1 -8 -9 -8 -8 0 -15 5
-15 11 0 5 -7 1 -16 -10 -8 -10 -13 -14 -10 -8 3 6 -1 11 -8 11 -10 0 -13 -9
-10 -25 5 -23 3 -24 -12 -11 -15 12 -17 12 -9 0 6 -11 4 -13 -9 -8 -10 4 -19
1 -22 -8 -4 -8 -9 -13 -13 -11 -20 13 -38 -24 -43 -91 -1 -7 -8 -13 -16 -13
-8 0 -12 -6 -9 -14 4 -9 -5 -21 -19 -31 -14 -9 -22 -20 -19 -26 4 -5 1 -8 -7
-7 -7 2 -12 -3 -10 -9 1 -7 -4 -13 -12 -13 -13 0 -31 -27 -28 -42 1 -4 -7 -12
-18 -18 -11 -6 -20 -18 -20 -27 0 -9 -8 -22 -17 -30 -11 -9 -12 -12 -3 -7 8 3
-1 -8 -20 -25 -19 -18 -28 -29 -20 -26 10 4 9 2 -2 -8 -10 -8 -15 -17 -11 -20
3 -4 -5 -7 -18 -8 -13 0 -19 -3 -12 -6 10 -3 10 -7 0 -18 -7 -7 -15 -11 -19
-9 -4 2 -9 -5 -13 -16 -3 -11 -11 -20 -16 -20 -6 0 -7 -4 -4 -10 3 -5 2 -10
-3 -10 -5 0 -12 -9 -15 -21 -3 -12 -10 -18 -16 -14 -7 3 -11 -3 -11 -15 0 -13
-4 -19 -11 -14 -7 4 -10 1 -7 -7 3 -8 -9 -28 -26 -44 -17 -17 -32 -37 -34 -45
-2 -8 -20 -31 -40 -51 -50 -51 -62 -66 -55 -73 4 -3 1 -6 -6 -6 -7 0 -10 -4
-6 -9 3 -5 -4 -12 -15 -16 -11 -4 -17 -11 -14 -17 5 -7 2 -9 -8 -5 -12 4 -14
1 -11 -14 3 -11 0 -19 -6 -19 -7 0 -9 -4 -6 -10 3 -5 1 -10 -4 -10 -6 0 -20
-9 -31 -20 -12 -12 -26 -18 -33 -14 -7 4 -9 4 -5 -1 8 -9 -10 -28 -35 -38 -10
-4 -15 -11 -12 -17 3 -5 1 -10 -4 -10 -39 0 -59 -71 -31 -106 9 -11 10 -15 3
-10 -8 4 -13 2 -13 -8 0 -8 5 -18 12 -22 7 -5 8 -3 3 6 -5 8 -4 11 3 6 6 -4 8
-14 5 -23 -5 -12 -2 -15 10 -10 13 5 14 2 8 -16 -5 -12 -4 -35 1 -52 20 -67
27 -143 14 -164 -4 -6 -4 -11 1 -10 20 4 24 -2 12 -18 -8 -9 -9 -14 -3 -10 7
4 14 0 17 -7 3 -8 1 -17 -6 -20 -9 -3 -9 -5 1 -5 17 -1 15 -21 -3 -21 -8 0
-15 -5 -15 -11 0 -5 6 -7 13 -4 6 4 1 -2 -12 -13 -13 -10 -21 -24 -17 -31 5
-7 1 -9 -11 -4 -16 6 -17 5 -3 -12 8 -10 10 -16 4 -12 -14 8 -13 -40 0 -62 6
-10 5 -12 -2 -7 -8 4 -11 -3 -9 -24 1 -16 5 -30 10 -30 4 0 7 -7 7 -15 0 -8 8
-15 18 -15 14 0 15 -2 2 -10 -9 -6 -10 -10 -3 -10 6 0 10 -9 8 -20 -2 -11 2
-20 8 -20 8 0 9 -2 1 -8 -6 -4 -10 -17 -9 -30 1 -16 -3 -21 -12 -18 -9 4 -11
2 -6 -6 10 -17 11 -48 1 -42 -13 8 -10 -10 5 -25 6 -8 7 -11 1 -8 -8 4 -8 -3
0 -28 6 -18 15 -31 21 -27 5 3 4 -1 -3 -10 -10 -13 -10 -17 0 -21 10 -4 10 -6
-1 -6 -11 -1 -11 -4 -1 -16 10 -12 10 -15 -1 -15 -9 0 -10 -3 -4 -8 14 -10 15
-42 2 -42 -6 0 -2 -7 9 -16 10 -8 14 -13 8 -10 -6 3 -11 -1 -11 -9 0 -8 4 -12
8 -9 4 2 10 0 14 -6 3 -5 0 -10 -7 -10 -8 0 -9 -3 -3 -8 12 -8 13 -42 2 -59
-4 -7 1 -18 13 -26 19 -13 21 -26 23 -141 1 -69 -2 -126 -6 -126 -5 0 -6 -4
-2 -9 3 -5 0 -13 -5 -16 -8 -5 -6 -11 5 -18 14 -11 13 -16 -6 -51 -17 -31 -20
-51 -16 -100 6 -67 13 -103 26 -140 6 -13 8 -65 6 -115 -2 -50 1 -105 7 -121
11 -32 3 -51 -41 -97 -12 -13 -19 -23 -16 -23 7 0 -46 -103 -58 -111 -5 -3 -7
-9 -5 -11 3 -5 -71 -157 -82 -168 -3 -3 -59 -112 -125 -243 -66 -131 -159
-316 -208 -410 l-87 -172 1 -392 c1 -236 5 -393 11 -393 5 0 6 -5 3 -11 -8
-11 20 -75 37 -85 7 -5 8 -2 3 7 -7 11 -6 12 6 3 18 -14 49 -14 49 0 0 6 7 2
15 -8 8 -11 15 -14 15 -7 0 7 5 9 10 6 5 -3 10 0 10 7 0 8 3 9 8 3 11 -15 32
-17 48 -4 8 6 14 7 14 2 0 -11 39 -11 56 0 6 3 14 3 19 -1 10 -10 49 -9 57 3
5 6 8 5 8 -2 0 -9 7 -10 23 -4 14 5 30 5 40 0 12 -7 17 -6 17 2 0 8 4 8 15 -1
12 -10 18 -10 29 -1 9 7 17 8 20 3 3 -6 20 -7 41 -2 21 5 35 4 35 -1 0 -6 9
-5 20 1 14 8 20 8 20 0 0 -8 6 -8 20 0 14 8 20 8 20 0 0 -6 5 -8 12 -4 17 11
88 11 88 0 0 -4 7 -3 16 5 13 10 17 10 25 -2 5 -8 9 -9 9 -4 0 14 243 14 252
1 5 -8 8 -8 8 0 0 8 48 11 155 10 85 -1 155 3 155 7 0 5 5 5 11 2 17 -11 149
-11 153 0 3 6 9 4 14 -4 6 -9 12 -10 16 -3 4 6 13 9 21 5 9 -3 22 0 30 7 11 9
15 10 15 1 0 -7 8 -10 18 -7 36 11 61 -36 58 -109 -1 -27 2 -56 7 -62 6 -8 6
-13 0 -13 -6 0 -9 -12 -7 -27 1 -16 4 -48 5 -73 4 -57 12 -66 65 -65 23 0 40
-3 37 -8 -4 -6 29 -12 51 -8 4 1 14 -3 20 -9 7 -5 16 -6 20 -2 11 11 60 9 69
-3 5 -7 9 -7 15 0 10 14 62 15 62 2 0 -7 4 -7 12 1 8 8 17 8 31 1 11 -7 17 -7
13 -1 -3 6 9 9 32 8 20 -2 43 2 51 8 11 8 13 8 8 0 -5 -9 20 -10 90 -7 54 2
179 5 278 7 100 1 186 6 193 10 7 4 12 3 12 -2 0 -10 42 -8 59 3 6 3 11 1 11
-5 0 -7 6 -8 19 0 11 5 22 7 24 3 7 -11 170 -9 187 2 9 6 11 4 5 -5 -6 -9 -4
-11 4 -5 15 9 91 12 91 4 0 -4 15 -3 34 1 19 4 40 4 47 -1 7 -4 18 -5 23 -1
13 8 116 9 116 1 0 -3 16 -5 35 -5 19 1 35 4 35 7 0 4 18 3 39 -1 25 -4 44 -3
51 4 8 8 13 7 20 -4 5 -8 10 -10 10 -4 0 8 11 9 34 4 19 -4 37 -5 40 -2 10 9
96 9 96 0 0 -5 5 -6 12 -2 7 4 113 9 236 10 123 1 226 5 229 8 3 3 12 1 20 -5
7 -6 13 -8 13 -3 0 5 38 9 85 9 47 0 85 4 85 8 0 5 6 5 13 -1 8 -7 18 -7 27
-2 8 5 21 5 31 -1 12 -6 20 -5 24 1 5 8 11 8 20 0 9 -8 15 -8 20 0 3 6 11 7
18 3 14 -8 58 -9 80 0 10 4 17 2 17 -5 0 -7 4 -7 14 1 10 9 16 9 21 1 4 -6 12
-7 18 -2 7 4 31 8 55 8 23 -1 42 3 42 8 0 5 6 3 13 -3 8 -6 16 -8 19 -5 3 3
44 6 90 8 46 1 90 6 98 11 8 5 11 4 7 -1 -7 -12 75 -10 94 2 7 4 14 3 17 -4 3
-9 9 -9 23 -2 14 8 19 7 19 -1 0 -8 4 -8 13 -2 6 6 31 9 54 8 24 -1 48 2 55 6
6 4 22 3 35 -2 12 -5 23 -5 23 -1 0 7 13 10 56 14 6 1 11 6 11 12 1 6 5 25 10
41 9 28 9 48 2 187 -2 59 18 98 43 82 18 -11 178 -12 171 -1 -4 6 -1 7 8 1 20
-12 131 -12 148 0 12 9 13 8 6 -4 -8 -13 -7 -13 8 -1 9 7 17 9 17 4 0 -11 49
-12 66 -1 6 4 14 4 18 1 10 -10 50 -10 57 1 4 5 13 5 20 0 16 -10 49 -13 49
-5 0 3 11 6 25 6 14 0 25 -4 25 -9 0 -5 7 -3 15 4 11 9 15 9 15 1 0 -9 5 -9
21 0 16 8 20 8 14 -1 -6 -9 -2 -9 14 -1 16 9 21 9 21 -1 0 -8 3 -9 8 -3 8 12
22 13 38 3 6 -4 14 -4 18 0 11 10 30 9 39 -3 5 -7 9 -7 15 0 9 13 232 13 251
1 9 -6 12 -5 8 1 -4 7 43 10 142 10 81 0 153 3 159 7 6 3 14 2 17 -4 5 -8 11
-8 19 -1 7 6 16 8 19 5 6 -6 128 12 157 23 8 4 19 7 24 7 5 1 18 17 29 35 19
36 20 41 14 289 -1 34 -6 62 -12 62 -6 0 -6 3 0 8 14 9 13 125 0 134 -7 5 -6
8 0 8 12 0 14 59 3 75 -4 6 -3 17 2 25 5 8 5 22 -1 32 -6 12 -6 18 0 18 7 0 7
9 1 25 -7 18 -6 25 3 25 7 0 8 3 2 8 -5 4 -11 38 -12 77 -1 39 -6 71 -12 73
-6 2 -11 12 -11 22 0 10 -7 21 -16 24 -8 3 -13 10 -9 15 3 5 1 12 -5 16 -6 4
-8 10 -6 14 3 4 -4 18 -15 30 -11 12 -17 26 -14 31 3 6 3 10 -2 10 -4 0 -13
10 -19 23 -34 67 -46 87 -55 87 -6 0 -8 4 -4 9 3 5 -2 17 -11 25 -8 9 -12 16
-7 16 4 0 4 4 -2 8 -18 13 -45 69 -37 77 4 5 1 5 -5 1 -8 -4 -13 -1 -13 8 0 9
-5 16 -11 16 -5 0 -8 4 -5 9 4 5 2 11 -3 13 -5 1 -11 10 -13 18 -5 21 -22 39
-32 32 -5 -3 -6 0 -2 6 8 13 -14 63 -24 57 -11 -7 -22 24 -13 37 3 7 1 8 -5 4
-7 -4 -12 -1 -12 9 0 12 -5 15 -16 11 -14 -5 -15 -4 -4 9 10 12 10 15 -4 15
-9 0 -16 4 -16 10 0 5 8 7 18 3 11 -3 9 0 -6 11 -12 10 -20 22 -17 27 4 5 1 9
-4 9 -6 0 -11 7 -11 15 0 16 -39 77 -52 83 -5 2 -8 12 -8 23 0 10 -4 19 -10
19 -5 0 -10 7 -10 16 0 19 -25 46 -34 36 -4 -3 -4 1 -1 10 3 8 -1 22 -9 31 -9
9 -16 23 -16 31 0 9 -4 16 -10 16 -5 0 -10 9 -10 20 0 11 -4 20 -8 20 -9 0
-29 37 -30 54 0 5 -7 13 -16 18 -9 5 -14 13 -11 19 4 5 2 9 -4 9 -5 0 -20 23
-32 50 -12 27 -26 50 -31 50 -4 0 -8 9 -8 20 0 11 -4 20 -8 20 -15 0 -33 48
-21 56 6 3 9 17 6 30 -2 14 1 24 7 24 6 0 5 4 -3 9 -17 11 -24 41 -9 41 7 0 7
5 -1 13 -8 10 -7 17 1 25 9 9 9 12 -1 12 -7 0 -9 5 -6 10 3 6 -4 14 -17 19
-13 6 -17 10 -9 10 11 1 11 4 0 18 -12 15 -12 16 6 10 17 -6 18 -5 4 5 -14 12
-14 15 6 32 13 11 21 26 18 33 -3 7 -1 13 5 13 12 0 10 100 -3 120 -11 17 -13
110 -3 110 4 0 5 9 3 20 -2 11 0 22 4 24 6 4 7 81 1 96 -1 3 -2 8 -1 13 0 4
-3 7 -7 7 -5 0 -9 57 -10 128 0 70 -1 171 -2 225 -1 56 3 104 9 111 12 14 10
78 -2 87 -11 8 -15 89 -5 89 5 0 7 6 5 13 -1 6 4 11 11 10 6 -2 12 4 12 12 0
8 8 15 17 15 9 0 13 3 10 7 -4 3 1 12 11 20 9 8 11 11 3 7 -10 -5 -12 -3 -5 7
10 17 12 219 2 212 -5 -2 -8 8 -8 22 0 17 4 24 12 19 7 -4 8 -3 4 4 -4 6 -14
9 -24 6 -14 -5 -14 -3 2 10 11 9 16 16 10 16 -5 0 -2 5 6 10 13 9 13 11 0 20
-13 9 -13 10 0 10 13 0 13 1 0 10 -13 9 -13 10 0 10 12 0 12 2 1 9 -9 6 -10
11 -2 15 6 4 9 10 7 14 -2 4 10 8 27 8 44 2 59 27 39 67 -8 18 -18 34 -21 37
-20 17 -44 52 -31 46 8 -5 3 3 -12 16 -15 14 -25 28 -21 32 3 3 -1 6 -10 6 -9
0 -21 9 -27 20 -6 11 -8 20 -5 20 4 0 -14 20 -39 44 -24 24 -42 47 -39 50 4 3
1 6 -4 6 -12 0 -12 18 0 37 5 8 1 11 -14 8 -15 -3 -19 0 -15 10 3 9 -1 12 -13
10 -14 -3 -17 1 -14 16 3 10 1 19 -5 19 -6 0 -14 9 -17 20 -3 11 -11 20 -16
20 -19 0 -61 51 -55 67 6 13 4 14 -9 3 -9 -7 -15 -9 -14 -4 4 22 -2 35 -13 28
-6 -4 -8 -3 -4 4 3 6 -1 17 -9 25 -8 9 -15 20 -15 25 0 5 -9 12 -20 15 -11 3
-20 11 -20 19 0 10 3 9 10 -2 6 -9 10 -10 10 -3 0 13 -34 35 -42 27 -3 -3 -8
2 -12 11 -3 10 -2 14 5 9 6 -3 5 3 -2 14 -7 12 -17 18 -21 16 -8 -5 -12 11 -8
31 1 6 -1 7 -5 3 -4 -4 -14 0 -22 8 -8 8 -19 11 -25 8 -7 -4 -8 -2 -4 4 4 7 3
12 -3 12 -6 0 -7 7 -4 17 4 11 3 14 -5 9 -7 -4 -12 -1 -12 7 0 8 -7 18 -16 21
-10 4 -14 12 -10 22 4 11 2 15 -8 11 -8 -3 -20 2 -28 11 -11 13 -11 15 2 8 8
-4 7 -1 -3 7 -10 9 -19 19 -20 24 -1 4 -5 7 -10 5 -4 -1 -6 1 -6 5 3 21 -2 33
-15 33 -7 0 -20 8 -27 18 -12 15 -12 16 1 7 9 -5 7 -2 -3 8 -11 9 -15 17 -11
18 5 0 -1 4 -13 9 -16 7 -21 14 -16 26 5 13 3 15 -7 9 -10 -6 -12 -4 -7 8 4
12 2 14 -11 10 -9 -3 -14 -3 -10 2 4 4 3 14 -3 22 -6 7 -8 13 -4 13 4 0 2 7
-5 15 -7 8 -23 15 -37 15 -17 0 -22 4 -17 13 5 7 0 6 -11 -3 -10 -8 -16 -10
-13 -5 7 12 -12 30 -32 30 -8 0 -18 -4 -22 -10 -4 -5 -8 -1 -8 10 0 17 -2 17
-10 5 -9 -14 -11 -13 -14 9 0 5 -5 13 -10 18 -5 5 -6 3 -2 -4 4 -7 3 -13 -3
-13 -5 0 -14 6 -18 14 -4 7 -19 19 -32 26 -18 9 -22 9 -16 0 6 -9 3 -9 -12 -1
-11 6 -23 7 -27 4 -3 -3 -6 -1 -6 6 0 6 -6 11 -12 10 -7 -1 -21 1 -31 6 -15 6
-16 10 -5 16 10 7 8 9 -6 9 -11 0 -30 10 -43 22 -13 12 -23 16 -23 10 0 -15
-49 5 -71 29 -13 14 -19 15 -29 6 -10 -9 -11 -9 -6 1 4 6 2 12 -4 12 -6 0 -8
5 -4 12 4 6 3 8 -4 4 -6 -3 -14 -1 -17 5 -4 5 -13 8 -20 5 -7 -2 -23 3 -36 11
-13 10 -19 11 -14 4 6 -10 3 -11 -13 -2 -12 6 -24 17 -28 24 -5 7 0 6 12 -3
18 -14 18 -14 5 2 -7 10 -17 16 -21 13 -5 -3 -15 1 -23 9 -8 8 -17 12 -21 9
-3 -4 -6 1 -6 11 0 9 -4 14 -10 11 -5 -3 -10 -1 -10 5 0 6 -5 8 -10 5 -6 -4
-18 -1 -27 7 -10 7 -14 8 -10 1 10 -17 -23 -10 -34 8 -5 8 -9 11 -9 7 0 -4
-13 6 -29 23 -20 20 -31 26 -34 17 -4 -9 -6 -8 -6 3 -1 11 -10 15 -36 13 -26
-2 -34 0 -28 9 5 9 3 9 -9 -1 -13 -10 -18 -9 -29 5 -13 17 -13 17 6 3 19 -14
19 -14 6 3 -7 9 -19 17 -26 17 -8 0 -22 10 -32 23 -12 15 -26 21 -45 19 -16
-2 -28 1 -28 7 0 5 -9 8 -19 6 -15 -3 -18 1 -14 12 5 13 3 14 -16 3 -21 -11
-22 -10 -11 10 7 14 8 20 2 16 -6 -4 -14 -1 -19 6 -8 14 -29 19 -76 19 -15 0
-25 5 -22 10 4 5 -1 9 -10 9 -9 0 -14 4 -11 9 3 4 -6 7 -19 6 -13 -2 -24 0
-24 3 4 23 -3 33 -17 28 -10 -4 -13 -2 -8 6 5 7 0 9 -14 6 -13 -4 -22 -1 -22
5 0 7 -5 5 -10 -3 -9 -14 -14 -7 -11 13 1 5 -2 6 -6 4 -11 -6 -74 29 -66 37 3
3 -1 6 -10 6 -10 0 -17 5 -17 11 0 6 -9 9 -20 6 -11 -3 -22 -1 -25 4 -3 4 -12
6 -20 2 -8 -3 -15 0 -15 6 0 6 -13 11 -30 11 -24 0 -30 4 -30 23 0 18 -2 19
-10 7 -6 -10 -10 -11 -10 -2 0 6 -7 12 -16 12 -9 0 -12 5 -8 12 5 8 0 9 -14 6
-16 -5 -22 -1 -23 10 0 11 -2 12 -6 5 -2 -7 -9 -13 -14 -13 -6 0 -8 4 -5 9 3
5 -1 12 -10 15 -10 4 -13 2 -9 -7 4 -6 0 -4 -8 5 -8 10 -17 15 -20 11 -4 -3
-7 1 -7 9 0 12 -7 15 -22 11 -16 -3 -19 -2 -10 4 9 7 2 14 -23 26 -19 9 -37
12 -40 8 -3 -5 -16 -4 -29 2 -13 7 -22 16 -19 20 3 5 -5 6 -17 2 -14 -4 -20
-3 -16 3 6 11 -42 47 -51 38 -3 -3 -12 2 -20 12 -9 10 -11 11 -7 2 6 -12 5
-13 -7 -3 -14 11 -19 13 -40 13 -5 0 -7 6 -3 13 5 7 0 6 -11 -3 -10 -8 -16
-10 -13 -5 3 6 0 15 -7 22 -11 10 -15 10 -18 0 -4 -7 -6 -6 -6 4 -1 17 -22 21
-43 8z m2226 -1057 c3 -5 -1 -9 -9 -9 -8 0 -12 4 -9 9 3 4 7 8 9 8 2 0 6 -4 9
-8z m-1404 -1183 c0 10 154 7 162 -4 5 -6 8 -6 8 2 0 7 11 10 28 8 15 -2 31
-4 35 -4 5 -1 5 -5 2 -11 -3 -5 0 -10 7 -11 10 0 10 -2 1 -6 -9 -3 -10 -10 -3
-24 8 -14 7 -19 -2 -20 -9 0 -9 -2 -2 -5 7 -3 10 -13 7 -23 -3 -10 2 -21 10
-24 9 -3 13 -14 10 -31 -3 -16 -10 -23 -17 -19 -6 4 -5 0 2 -9 9 -11 10 -18 2
-23 -6 -3 -8 -11 -5 -16 3 -5 -2 -6 -11 -2 -13 5 -15 3 -8 -8 15 -23 32 -79
23 -73 -5 3 -9 1 -9 -5 0 -5 5 -13 11 -17 7 -4 7 -10 1 -16 -6 -6 -8 -17 -5
-26 5 -11 2 -13 -6 -7 -10 6 -11 3 -3 -11 11 -23 5 -47 -11 -38 -8 5 -8 2 1
-7 17 -18 15 -32 -3 -25 -12 4 -14 2 -7 -11 5 -9 7 -25 4 -36 -4 -15 -2 -18 9
-12 8 5 11 5 8 1 -4 -4 -3 -23 1 -43 7 -31 5 -38 -18 -60 -15 -14 -18 -19 -8
-12 18 13 18 13 6 -7 -13 -21 -45 -30 -33 -10 4 6 -1 5 -10 -3 -14 -11 -17
-11 -17 0 0 11 -2 11 -10 -1 -5 -8 -10 -10 -10 -4 0 19 -28 24 -45 8 -9 -10
-15 -11 -15 -4 0 6 -6 10 -12 7 -7 -2 -12 -10 -10 -17 2 -10 -1 -10 -14 1 -12
9 -15 9 -10 2 4 -8 1 -13 -9 -13 -9 0 -14 -4 -11 -9 3 -5 -2 -8 -12 -7 -9 0
-16 -5 -14 -12 1 -8 -2 -11 -8 -7 -6 3 -7 12 -3 18 4 7 -2 5 -12 -3 -11 -9
-16 -10 -11 -2 4 7 2 12 -4 12 -6 0 -8 5 -5 10 3 6 1 10 -6 10 -6 0 -9 8 -6
20 3 13 1 18 -6 13 -6 -4 -8 0 -4 10 3 9 3 16 -1 16 -4 -1 -14 -1 -22 0 -12 1
-12 4 3 12 9 5 17 15 17 22 0 8 -4 6 -11 -3 -9 -12 -10 -11 -6 7 3 13 1 26 -4
29 -6 3 -6 11 1 19 7 8 9 23 5 35 -4 13 -2 20 7 20 8 0 6 5 -5 11 -17 10 -16
12 7 36 14 14 23 29 21 34 -3 4 3 13 12 19 14 9 14 10 2 7 -14 -4 -15 1 -11
36 2 23 9 45 16 49 8 5 7 8 -2 8 -10 0 -13 13 -10 50 2 29 -1 50 -7 50 -5 0
-3 5 5 10 12 8 12 10 -5 10 -17 0 -17 2 -5 10 10 6 11 10 3 10 -7 0 -13 5 -13
11 0 5 4 8 10 4 5 -3 3 7 -5 22 -10 19 -11 29 -4 34 8 5 8 8 0 13 -7 5 -7 12
1 25 9 15 18 17 45 11 18 -4 33 -5 33 -1z m-1702 -15 c17 0 32 3 32 8 0 5 6 6
13 1 17 -11 57 -12 57 -1 0 5 6 6 13 1 17 -11 30 -11 44 0 9 6 15 4 19 -6 3
-8 13 -13 23 -10 18 5 19 2 24 -52 1 -16 6 -35 10 -42 4 -7 8 -34 9 -62 2 -28
6 -47 12 -44 5 4 6 1 0 -8 -11 -19 -13 -58 -2 -65 4 -3 5 -11 1 -17 -7 -11 -9
-20 -12 -68 0 -11 -5 -18 -9 -15 -5 3 -9 -1 -9 -9 0 -8 5 -12 10 -8 5 3 5 -2
0 -13 -10 -19 -8 -106 2 -132 3 -8 0 -10 -6 -6 -8 4 -9 -1 -3 -17 9 -29 9 -39
-1 -62 -5 -12 -3 -17 6 -15 7 2 14 -4 15 -12 0 -8 2 -17 3 -20 8 -17 6 -52 -3
-58 -15 -9 -75 -9 -70 0 5 8 -11 12 -30 9 -5 -1 -3 6 4 16 8 10 11 15 6 11 -4
-3 -19 0 -34 8 -19 9 -28 10 -31 3 -2 -7 -6 -6 -12 2 -7 11 -9 11 -9 1 0 -10
-5 -10 -20 -2 -15 8 -20 8 -21 -2 0 -10 -2 -10 -6 -1 -3 9 -10 10 -23 3 -14
-7 -23 -6 -34 6 -9 8 -24 14 -33 12 -10 -1 -24 1 -30 5 -9 6 -13 2 -13 -10 0
-13 -5 -10 -19 12 -13 21 -15 34 -8 43 6 8 5 12 -4 12 -11 0 -11 2 1 10 13 9
7 14 -12 11 -4 0 -5 6 -2 14 4 8 11 12 18 9 6 -3 0 3 -14 14 -13 11 -28 18
-32 16 -4 -3 -5 2 -1 11 5 13 7 14 14 3 10 -15 12 -7 3 16 -3 9 -11 13 -18 10
-6 -3 -2 2 8 10 13 10 15 16 7 16 -10 0 -11 3 -2 14 9 11 9 15 -1 19 -9 4 -7
6 4 6 11 1 15 7 11 21 -3 11 -10 17 -17 14 -6 -3 -4 0 5 8 15 12 15 43 1 34
-10 -6 -13 86 -3 98 4 6 8 59 7 119 -1 59 3 107 7 107 5 0 5 5 1 11 -5 8 1 10
20 7 14 -3 29 -2 31 2 3 5 16 7 30 5 14 -1 25 3 25 9 0 7 3 7 8 1 4 -6 22 -10
40 -11z m1632 -368 c0 -2 -8 -10 -17 -17 -16 -13 -17 -12 -4 4 13 16 21 21 21
13z"/>
<path d="M3936 7773 c-6 -14 -5 -15 5 -6 7 7 10 15 7 18 -3 3 -9 -2 -12 -12z"/>
<path d="M5660 7506 c0 -2 8 -10 18 -17 15 -13 16 -12 3 4 -13 16 -21 21 -21
13z"/>
<path d="M3290 7480 c0 -5 5 -10 11 -10 5 0 7 5 4 10 -3 6 -8 10 -11 10 -2 0
-4 -4 -4 -10z"/>
<path d="M2490 7049 c0 -5 5 -7 10 -4 6 3 10 8 10 11 0 2 -4 4 -10 4 -5 0 -10
-5 -10 -11z"/>
</g>
</svg>
